<svg xmlns="http://www.w3.org/2000/svg" width="820" height="260" viewBox="0 0 820 260">
  <rect width="100%" height="100%" fill="white"/>
  <text x="50" y="30" font-family="Arial" font-size="18">Learned policy by current inventory, Monday state</text>
  <rect x="50.0" y="80" width="23.2" height="70" fill="#ef476f"/><text x="61.6" y="170" text-anchor="middle" font-family="Arial" font-size="10">0</text><rect x="73.2" y="80" width="23.2" height="70" fill="#ef476f"/><text x="84.8" y="170" text-anchor="middle" font-family="Arial" font-size="10">1</text><rect x="96.5" y="80" width="23.2" height="70" fill="#ef476f"/><text x="108.1" y="170" text-anchor="middle" font-family="Arial" font-size="10">2</text><rect x="119.7" y="80" width="23.2" height="70" fill="#ef476f"/><text x="131.3" y="170" text-anchor="middle" font-family="Arial" font-size="10">3</text><rect x="142.9" y="80" width="23.2" height="70" fill="#ef476f"/><text x="154.5" y="170" text-anchor="middle" font-family="Arial" font-size="10">4</text><rect x="166.1" y="80" width="23.2" height="70" fill="#ef476f"/><text x="177.7" y="170" text-anchor="middle" font-family="Arial" font-size="10">5</text><rect x="189.4" y="80" width="23.2" height="70" fill="#ef476f"/><text x="201.0" y="170" text-anchor="middle" font-family="Arial" font-size="10">6</text><rect x="212.6" y="80" width="23.2" height="70" fill="#ef476f"/><text x="224.2" y="170" text-anchor="middle" font-family="Arial" font-size="10">7</text><rect x="235.8" y="80" width="23.2" height="70" fill="#ef476f"/><text x="247.4" y="170" text-anchor="middle" font-family="Arial" font-size="10">8</text><rect x="259.0" y="80" width="23.2" height="70" fill="#ef476f"/><text x="270.6" y="170" text-anchor="middle" font-family="Arial" font-size="10">9</text><rect x="282.3" y="80" width="23.2" height="70" fill="#ffd166"/><text x="293.9" y="170" text-anchor="middle" font-family="Arial" font-size="10">10</text><rect x="305.5" y="80" width="23.2" height="70" fill="#ffd166"/><text x="317.1" y="170" text-anchor="middle" font-family="Arial" font-size="10">11</text><rect x="328.7" y="80" width="23.2" height="70" fill="#ffd166"/><text x="340.3" y="170" text-anchor="middle" font-family="Arial" font-size="10">12</text><rect x="351.9" y="80" width="23.2" height="70" fill="#ffd166"/><text x="363.5" y="170" text-anchor="middle" font-family="Arial" font-size="10">13</text><rect x="375.2" y="80" width="23.2" height="70" fill="#ffd166"/><text x="386.8" y="170" text-anchor="middle" font-family="Arial" font-size="10">14</text><rect x="398.4" y="80" width="23.2" height="70" fill="#ffd166"/><text x="410.0" y="170" text-anchor="middle" font-family="Arial" font-size="10">15</text><rect x="421.6" y="80" width="23.2" height="70" fill="#ffd166"/><text x="433.2" y="170" text-anchor="middle" font-family="Arial" font-size="10">16</text><rect x="444.8" y="80" width="23.2" height="70" fill="#ffd166"/><text x="456.5" y="170" text-anchor="middle" font-family="Arial" font-size="10">17</text><rect x="468.1" y="80" width="23.2" height="70" fill="#ffd166"/><text x="479.7" y="170" text-anchor="middle" font-family="Arial" font-size="10">18</text><rect x="491.3" y="80" width="23.2" height="70" fill="#ffd166"/><text x="502.9" y="170" text-anchor="middle" font-family="Arial" font-size="10">19</text><rect x="514.5" y="80" width="23.2" height="70" fill="#b8c0ff"/><text x="526.1" y="170" text-anchor="middle" font-family="Arial" font-size="10">20</text><rect x="537.7" y="80" width="23.2" height="70" fill="#b8c0ff"/><text x="549.4" y="170" text-anchor="middle" font-family="Arial" font-size="10">21</text><rect x="561.0" y="80" width="23.2" height="70" fill="#b8c0ff"/><text x="572.6" y="170" text-anchor="middle" font-family="Arial" font-size="10">22</text><rect x="584.2" y="80" width="23.2" height="70" fill="#b8c0ff"/><text x="595.8" y="170" text-anchor="middle" font-family="Arial" font-size="10">23</text><rect x="607.4" y="80" width="23.2" height="70" fill="#b8c0ff"/><text x="619.0" y="170" text-anchor="middle" font-family="Arial" font-size="10">24</text><rect x="630.6" y="80" width="23.2" height="70" fill="#b8c0ff"/><text x="642.3" y="170" text-anchor="middle" font-family="Arial" font-size="10">25</text><rect x="653.9" y="80" width="23.2" height="70" fill="#b8c0ff"/><text x="665.5" y="170" text-anchor="middle" font-family="Arial" font-size="10">26</text><rect x="677.1" y="80" width="23.2" height="70" fill="#b8c0ff"/><text x="688.7" y="170" text-anchor="middle" font-family="Arial" font-size="10">27</text><rect x="700.3" y="80" width="23.2" height="70" fill="#b8c0ff"/><text x="711.9" y="170" text-anchor="middle" font-family="Arial" font-size="10">28</text><rect x="723.5" y="80" width="23.2" height="70" fill="#b8c0ff"/><text x="735.2" y="170" text-anchor="middle" font-family="Arial" font-size="10">29</text><rect x="746.8" y="80" width="23.2" height="70" fill="#b8c0ff"/><text x="758.4" y="170" text-anchor="middle" font-family="Arial" font-size="10">30</text>
  <text x="50" y="215" font-family="Arial" font-size="12">blue: order none, yellow: order less, red: order more</text>
</svg>
